<svg xmlns="http://www.w3.org/2000/svg" viewBox="0 0 388 251" preserveAspectRatio="xMidYMid meet">
  <!-- Background circle for loading indicator -->
  <circle cx="194" cy="125" r="120" fill="#f8f9fa" opacity="0.5"/>
  
  <!-- Main ArangoDB logo with animations -->
  <g transform="translate(0,251) scale(0.1,-0.1)">
    <!-- Main avocado/database shape -->
    <path d="M1965 2445 c-95 -21 -170 -53 -250 -106 -94 -63 -154 -131 -210 -240
    l-44 -85 -78 -18 c-201 -47 -378 -123 -458 -197 -24 -22 -54 -62 -67 -87 -66
    -136 10 -421 152 -562 128 -129 370 -202 561 -170 138 23 201 58 352 194 l89
    79 91 -43 c319 -148 430 -174 582 -135 164 43 263 142 297 298 23 109 -25 366
    -97 512 -65 133 -256 366 -361 441 -152 108 -384 158 -559 119z" fill="#3a8e49">
      <animate attributeName="opacity" values="0.8;1;0.8" dur="2s" repeatCount="indefinite"/>
    </path>
    
    <!-- Upper avocado section -->
    <path d="M2337 2372 c95 -30 142 -63 242 -169 174 -183 287 -359 333 -518 18 -65 23 -105 23 -215 0
    -130 -1 -137 -28 -182 -34 -58 -100 -110 -175 -139 -71 -27 -195 -36 -269 -19
    -48 10 -264 103 -365 156 l-36 19 70 95 c114 153 152 258 153 420 0 79 -4 103
    -23 141 -42 85 -138 129 -283 129 -77 0 -397 -40 -437 -55 -28 -10 47 103 113
    170 93 94 188 143 350 181 81 19 250 12 332 -14z" fill="#89be5c">
      <animate attributeName="opacity" values="0.9;1;0.9" dur="1.5s" repeatCount="indefinite"/>
    </path>
    
    <!-- Lower avocado section -->
    <path d="M1733 2043 c29 -11 69 -36 97 -63 38 -37 47 -54 53 -92 14 -95 -55 -251 -158 -356 
    -100 -102 -314 -227 -487 -284 -82 -26 -114 -31 -231 -36 -158 -5 -250 10 -348 59 
    -110 55 -173 157 -179 292 -4 68 -1 84 22 132 34 69 76 105 187 160 113 57 201 86 397 129
    324 72 550 93 647 59z" fill="#5a743e">
      <animate attributeName="opacity" values="0.7;0.9;0.7" dur="2s" repeatCount="indefinite"/>
    </path>
    
    <!-- Avocado pit/seed -->
    <path d="M1504 1970 c-158 -33 -294 -179 -320 -340 -9 -57 9 -79 107 -127 111
    -54 146 -63 261 -63 210 0 389 101 413 233 15 78 -87 213 -205 270 -62 30
    -182 43 -256 27z" fill="#654321">
      <animate attributeName="opacity" values="0.8;1;0.8" dur="1.8s" repeatCount="indefinite"/>
    </path>
  </g>
  
  <!-- Word "Arango" with fade animation -->
  <g transform="translate(0,251) scale(0.1,-0.1)" opacity="0.9">
    <path d="M422 713 c-5 -10 -42 -114 -82 -231 -60 -174 -76 -212 -91 -212 -14
    0 -19 -7 -19 -30 l0 -30 90 0 90 0 0 29 c0 20 -6 30 -19 34 -19 5 -19 7 -4 56
    l17 51 76 0 77 0 11 -39 c16 -51 15 -71 -3 -71 -10 0 -15 -10 -15 -30 l0 -30
    90 0 90 0 0 30 c0 23 -5 30 -19 30 -15 0 -29 31 -76 168 -32 92 -68 194 -80
    227 l-22 60 -51 3 c-41 2 -53 -1 -60 -15z" fill="#000">
      <animate attributeName="opacity" values="0.3;1;0.3" dur="3s" repeatCount="indefinite"/>
    </path>
    
    <path d="M924 575 c-30 -30 -34 -31 -34 -5 0 18 -7 20 -75 20 l-75 0 0 -29 c0
    -24 5 -30 30 -34 l30 -6 0 -120 c0 -118 0 -119 -25 -125 -20 -5 -25 -13 -25
    -36 l0 -30 100 0 100 0 0 29 c0 22 -6 30 -25 35 -25 6 -25 8 -25 104 0 111 6
    122 61 122 41 0 49 11 49 66 0 31 -2 34 -30 34 -20 0 -40 -9 -56 -25z" fill="#000">
      <animate attributeName="opacity" values="0.4;1;0.4" dur="3s" repeatCount="indefinite" begin="0.2s"/>
    </path>
    
    <path d="M1105 584 c-61 -22 -69 -34 -42 -67 l22 -28 52 22 c61 26 96 18 114
    -28 16 -43 6 -53 -56 -53 -31 0 -70 -6 -89 -14 -89 -37 -103 -148 -24 -196 42
    -25 93 -25 141 0 32 18 38 18 43 5 5 -11 22 -15 65 -15 59 0 59 0 59 30 0 20
    -5 30 -15 30 -12 0 -15 19 -15 111 0 136 -14 173 -74 200 -49 22 -125 23 -181
    3z" fill="#000">
      <animate attributeName="opacity" values="0.5;1;0.5" dur="3s" repeatCount="indefinite" begin="0.4s"/>
    </path>
    
    <path d="M1635 590 c-12 -4 -27 -15 -34 -24 -18 -22 -31 -20 -31 4 0 18 -7 20
    -75 20 l-75 0 0 -29 c0 -23 5 -30 23 -33 21 -3 22 -7 25 -125 l3 -122 -26 -7
    c-19 -5 -25 -12 -25 -35 l0 -29 100 0 100 0 0 29 c0 21 -6 32 -20 36 -18 6
    -20 15 -20 115 0 98 2 110 19 120 27 14 64 13 87 -4 16 -12 19 -29 22 -120 l4
    -105 -26 -7 c-20 -5 -26 -12 -26 -35 l0 -29 100 0 100 0 0 29 c0 22 -6 30 -24
    35 -23 6 -24 9 -28 128 -4 133 -14 164 -64 186 -29 14 -79 15 -109 2z" fill="#000">
      <animate attributeName="opacity" values="0.6;1;0.6" dur="3s" repeatCount="indefinite" begin="0.6s"/>
    </path>
    
    <path d="M1962 580 c-96 -60 -102 -284 -10 -353 40 -30 101 -33 143 -9 l35 21
    0 -30 c0 -19 -9 -39 -26 -56 -26 -26 -38 -27 -138 -11 -14 2 -21 -5 -27 -27
    -11 -38 -5 -43 64 -57 95 -20 175 12 213 84 11 20 14 72 14 208 l0 181 30 6
    c25 4 30 10 30 34 l0 29 -75 0 c-75 0 -75 0 -75 -27 l0 -26 -25 23 c-35 33
    -109 38 -153 10z" fill="#000">
      <animate attributeName="opacity" values="0.7;1;0.7" dur="3s" repeatCount="indefinite" begin="0.8s"/>
    </path>
  </g>
  
  <!-- Word "DB" with fade animation -->
  <g transform="translate(0,251) scale(0.1,-0.1)" opacity="0.9">
    <path d="M2690 701 c0 -23 6 -31 30 -40 l30 -10 0 -181 0 -181 -30 -10 c-24
    -9 -30 -17 -30 -40 l0 -29 133 0 c153 0 194 9 244 53 56 49 73 96 73 207 0
    111 -17 158 -73 207 -50 44 -91 53 -244 53 l-133 0 0 -29z" fill="#000">
      <animate attributeName="opacity" values="0.5;1;0.5" dur="3s" repeatCount="indefinite" begin="1s"/>
    </path>
    
    <path d="M3162 698 c2 -25 8 -34 26 -36 22 -3 22 -4 22 -192 0 -188 0 -189
    -22 -192 -18 -2 -24 -11 -26 -35 l-3 -33 141 0 c163 0 220 11 260 52 57 56 49
    162 -14 199 l-33 20 33 33 c42 42 46 95 11 147 -35 53 -93 68 -260 69 l-138 0
    3 -32z" fill="#000">
      <animate attributeName="opacity" values="0.6;1;0.6" dur="3s" repeatCount="indefinite" begin="1.2s"/>
    </path>
  </g>
  
  <!-- Loading dots -->
  <g transform="translate(194, 190)">
    <circle cx="-20" cy="0" r="4" fill="#3a8e49">
      <animate attributeName="opacity" values="0.2;1;0.2" dur="1.2s" repeatCount="indefinite" begin="0s"/>
    </circle>
    <circle cx="0" cy="0" r="4" fill="#3a8e49">
      <animate attributeName="opacity" values="0.2;1;0.2" dur="1.2s" repeatCount="indefinite" begin="0.4s"/>
    </circle>
    <circle cx="20" cy="0" r="4" fill="#3a8e49">
      <animate attributeName="opacity" values="0.2;1;0.2" dur="1.2s" repeatCount="indefinite" begin="0.8s"/>
    </circle>
  </g>
</svg>